PathFileType	4	(X/Y/Z)	s11c0303.trc
DataRate	CameraRate	NumFrames	NumMarkers	Units	OrigDataRate	OrigDataStartFrame	OrigNumFrames
200	200	4	48	mm	200	1000	2000
Frame#	Time	racr			lacr			c7			jug			rlel			rdr			llel			ldr			s2			lic			ric			lasi			rasi			rpsi			lpsi			rgt			lgt			rth1			rth2			rth3			rth4			rlfc			rmfc			rsh1			rsh2			rsh3			rsh4			rlmal			rcal			rtoe			rmt5			lth1			lth2			lth4			lth3			llfc			lmfc			llmal			lcal			lmt5			lsh1			lsh2			lsh3			lsh4			ltoe			SBIKE			LBIKE			RBIKE			
		X1	Y1	Z1	X2	Y2	Z2	X3	Y3	Z3	X4	Y4	Z4	X5	Y5	Z5	X6	Y6	Z6	X7	Y7	Z7	X8	Y8	Z8	X9	Y9	Z9	X10	Y10	Z10	X11	Y11	Z11	X12	Y12	Z12	X13	Y13	Z13	X14	Y14	Z14	X15	Y15	Z15	X16	Y16	Z16	X17	Y17	Z17	X18	Y18	Z18	X19	Y19	Z19	X20	Y20	Z20	X21	Y21	Z21	X22	Y22	Z22	X23	Y23	Z23	X24	Y24	Z24	X25	Y25	Z25	X26	Y26	Z26	X27	Y27	Z27	X28	Y28	Z28	X29	Y29	Z29	X30	Y30	Z30	X31	Y31	Z31	X32	Y32	Z32	X33	Y33	Z33	X34	Y34	Z34	X35	Y35	Z35	X36	Y36	Z36	X37	Y37	Z37	X38	Y38	Z38	X39	Y39	Z39	X40	Y40	Z40	X41	Y41	Z41	X42	Y42	Z42	X43	Y43	Z43	X44	Y44	Z44	X45	Y45	Z45	X46	Y46	Z46	X47	Y47	Z47	X48	Y48	Z48	
1000	5.0000	826.878625	1379.735059	-61.357339	773.976038	1444.584369	-400.065691	766.909017	1519.253053	-213.820104	783.505443	1340.616010	-255.085383	673.933119	1145.430807	45.491645	800.827749	931.923161	-68.924686	674.241641	1193.493393	-575.530507	803.949491	921.089811	-468.466654	182.555563	1277.736018	-193.737371	387.429080	1329.189356	-399.873860	428.819098	1214.704528	-24.610877	415.838826	1248.079126	-378.128084	447.342018	1163.407166	-77.472204	240.507200	1337.050803	-124.266471	230.763460	1353.009653	-213.596214	315.785685	1087.770686	-14.894410	295.116034	1202.452757	-430.901349	331.475092	960.217351	-23.897160	363.027348	879.491659	-47.538264	349.373447	796.060927	-72.024342	397.363967	886.131971	-58.745727	363.182562	698.823357	-100.106565	343.992656	683.314584	-221.747194	306.950429	550.298266	-81.511342	301.483631	463.951402	-98.557363	255.940040	389.477804	-97.693665	324.986454	459.289864	-130.711644	206.464505	262.250089	-105.478407	140.212664	266.023775	-152.087399	402.140157	144.710288	-150.562708	328.384227	141.261833	-79.911696	407.490096	1108.442345	-465.381641	481.399688	1064.462947	-466.655041	507.121654	1086.150496	-450.941961	526.335083	987.702319	-480.806247	593.450528	871.364332	-473.281757	612.419305	847.553157	-346.529495	230.543147	650.714744	-424.833555	170.503041	665.133421	-385.320332	244.760122	471.084707	-450.702916	487.587789	806.966765	-484.815363	432.804174	744.059929	-464.898856	350.364100	714.376796	-453.320884	454.382795	718.980223	-445.667852	319.696670	405.673129	-386.632761	-214.597755	949.398719	-256.131564	-17.818718	81.064260	-460.590668	-17.915697	80.822348	-61.691308	
1001	5.0050	827.517406	1383.914342	-63.962843	770.935760	1446.709206	-403.621304	765.909440	1521.209150	-217.100947	782.932635	1343.001567	-257.349292	677.070107	1147.766802	43.765642	801.685374	931.994695	-68.924617	668.563624	1191.999074	-576.209840	802.580194	919.824608	-465.508259	183.403535	1276.857067	-189.918935	383.684764	1331.758465	-399.647997	431.760457	1214.814250	-25.090794	413.852178	1250.320874	-379.128296	449.217324	1164.983738	-78.286247	242.382591	1336.141392	-120.528161	232.105000	1351.958845	-211.165926	316.160564	1086.612973	-16.159961	293.679157	1203.974895	-428.642745	328.869304	960.082541	-24.288555	358.802483	878.593648	-47.491026	343.462497	795.296079	-71.442882	393.180264	884.671112	-59.105365	355.833724	698.167696	-100.650203	334.556588	683.609207	-222.204733	298.485277	550.251342	-81.381779	292.907785	463.903774	-98.404428	247.346578	389.463354	-97.175104	316.448197	459.258747	-130.408092	197.814996	261.375778	-105.845896	132.642111	266.773634	-151.807427	392.179254	140.454960	-150.429052	318.369521	138.427995	-79.778781	408.136403	1111.941409	-465.339489	482.782573	1069.245276	-467.103231	508.203968	1091.221993	-451.552929	528.770633	993.423375	-482.408261	599.775607	878.076080	-475.129050	619.528500	853.809524	-347.157576	239.446464	652.658292	-425.037877	179.564445	666.954514	-385.703501	255.395487	473.432073	-450.825722	495.303875	812.863169	-485.374290	441.124873	749.143574	-465.730900	358.931921	718.810576	-453.968938	462.991126	724.138015	-446.914107	330.642342	408.887304	-386.798176	-215.010919	949.605661	-255.078432	-17.809845	81.063157	-460.605664	-17.839728	80.827836	-61.773912	
1002	5.0100	828.106248	1387.903924	-66.537564	767.824524	1448.483810	-407.339013	765.624446	1521.711614	-219.595728	782.269921	1344.929098	-259.427932	680.079927	1149.971800	41.845678	802.468178	932.047296	-69.022373	662.782004	1190.234613	-576.794316	803.503758	921.990139	-468.245368	184.247189	1276.402805	-186.351869	379.898064	1334.513212	-399.904630	434.518475	1214.906286	-25.820119	411.969338	1252.078346	-380.672673	450.941765	1166.616837	-79.415014	243.695792	1335.735650	-116.534615	232.354921	1351.012585	-207.834829	316.804093	1085.700322	-16.965249	292.061006	1205.680297	-427.102718	326.706595	960.496267	-24.344131	355.053698	878.540262	-47.248678	338.190920	795.374444	-70.510111	389.142423	883.928580	-59.337025	349.058351	698.140685	-101.007144	326.470876	684.949590	-223.758364	290.391579	550.856089	-81.141656	284.644258	464.526573	-98.072930	238.941370	390.122997	-96.849326	308.405111	459.718796	-129.886818	190.430113	262.195574	-104.959010	125.251615	268.554181	-151.491121	382.069035	136.796223	-150.353826	308.304320	136.306711	-79.602609	408.372677	1115.271180	-465.165843	483.731160	1073.761865	-467.549578	509.238435	1096.609469	-453.097380	530.662357	998.697994	-483.162191	606.071127	884.025577	-475.705803	626.350806	860.034748	-347.979444	248.277874	653.934671	-425.335408	188.549648	667.924642	-385.994962	265.845029	475.103404	-450.982401	503.038600	818.274830	-485.553863	449.398209	753.908328	-466.573943	367.631956	722.414249	-454.513680	471.588187	728.998743	-447.892522	341.810453	411.299416	-386.805474	-215.075510	949.605628	-255.071248	-17.823989	81.093291	-460.594470	-17.852104	80.829070	-61.768475	
1003	5.0150	828.601125	1391.549864	-68.989634	764.664547	1449.728981	-410.965138	765.569610	1521.736245	-221.850304	781.408748	1346.403680	-261.397482	683.066716	1152.019779	40.169528	803.258184	932.089417	-69.020588	657.004293	1188.351596	-577.448689	803.336161	922.420927	-467.928429	185.052870	1276.074521	-182.721335	376.483960	1336.921021	-399.563780	437.113783	1215.120975	-26.746347	409.634684	1253.385253	-382.313001	452.310286	1168.379121	-80.724327	245.562022	1335.130595	-112.850520	232.874343	1350.236374	-204.280646	317.660342	1085.174166	-17.163635	290.376492	1207.679230	-426.239842	325.230637	961.656749	-23.784914	351.951560	879.204653	-46.910115	333.567003	796.231832	-69.537669	385.979519	884.055660	-59.525700	342.870957	698.559715	-101.412480	319.907570	686.947049	-225.715058	282.935843	551.874312	-80.768520	277.037225	465.452751	-97.645536	230.945804	391.413102	-96.515629	301.001532	460.571517	-129.166807	182.795268	263.370629	-104.767416	118.151194	271.012112	-151.329077	372.480653	134.121838	-149.714725	298.174690	134.710819	-79.532758	408.375342	1118.200583	-465.017962	484.416153	1078.137786	-468.007086	509.743631	1101.391718	-454.009598	532.471087	1003.827335	-484.030735	611.777814	890.334249	-476.524425	632.854511	866.305073	-348.643911	256.896447	654.706125	-425.596705	197.022083	668.262976	-386.560506	276.563874	476.367898	-451.259921	510.205546	823.405206	-486.185843	457.595962	758.045684	-467.421555	376.326818	725.431433	-455.201488	480.188542	733.527190	-448.714475	353.169061	413.343812	-386.498643	-215.143639	949.650391	-255.096712	-17.836631	81.103483	-460.596639	-17.859074	80.849541	-61.805535	
